{"title":"Crepusculo Amanecer Parte 2 TS-Screener [Spanish]","uid":7838780,"size":1002582016,"categoryP":"video","categoryS":"movies","magnet":"?xt=urn:btih:08a5152a9a54973be563b0df407cbd1015806e16&amp;dn=Crepusculo+Amanecer+Parte+2+TS-Screener+%5BSpanish%5D&amp;tr=udp%3A%2F%2Ftracker.openbittorrent.com%3A80&amp;tr=udp%3A%2F%2Fopen.demonii.com%3A1337&amp;tr=udp%3A%2F%2Ftracker.coppersurfer.tk%3A6969&amp;tr=udp%3A%2F%2Fexodus.desync.com%3A6969","seeders":6,"leechers":0,"uploader":null,"files":1,"time":1353271711,"description":"General\nComplete name                  : La_saga_Crepusculo_-_Amanecer_Parte_2_[TS-Screener].avi\nFormat                         : AVI\nFormat/Info                    : Audio Video Interleave\nFile size                      : 956 MiB\nDuration                       : 1h 44mn\nOverall bit rate               : 1 284 Kbps\nWriting application            : VirtualDubMod 1.5.10.2 (build 2540/release)\nWriting library                : VirtualDubMod build 2540/release\n\nVideo\nID                             : 0\nFormat                         : MPEG-4 Visual\nFormat profile                 : Simple@L1\nFormat settings, BVOP          : No\nFormat settings, QPel          : No\nFormat settings, GMC           : No warppoints\nFormat settings, Matrix        : Default (H.263)\nCodec ID                       : DIVX\nCodec ID/Info                  : Project Mayo\nCodec ID/Hint                  : DivX 4\nDuration                       : 1h 44mn\nBit rate                       : 826 Kbps\nWidth                          : 620 pixels\nHeight                         : 340 pixels\nDisplay aspect ratio           : 16:9\nFrame rate                     : 23.976 fps\nColor space                    : YUV\nChroma subsampling             : 4:2:0\nBit depth                      : 8 bits\nScan type                      : Progressive\nCompression mode               : Lossy\nBits/(Pixel*Frame)             : 0.163\nStream size                    : 615 MiB (64%)\nWriting library                : Lavc52.45.0\n\nAudio\nID                             : 1\nFormat                         : AC-3\nFormat/Info                    : Audio Coding 3\nMode extension                 : CM (complete main)\nCodec ID                       : 2000\nDuration                       : 1h 44mn\nBit rate mode                  : Constant\nBit rate                       : 448 Kbps\nChannel(s)                     : 2 channels\nChannel positions              : Front: L R\nSampling rate                  : 48.0 KHz\nBit depth                      : 16 bits\nCompression mode               : Lossy\nStream size                    : 334 MiB (35%)\nAlignment                      : Split accross interleaves\nInterleave, duration           : 42 ms (1.00 video frame)\nInterleave, preload duration   : 500 ms","torrent":{"xt":"urn:btih:08a5152a9a54973be563b0df407cbd1015806e16","amp;dn":"Crepusculo+Amanecer+Parte+2+TS-Screener+%5BSpanish%5D","amp;tr":["udp%3A%2F%2Ftracker.openbittorrent.com%3A80","udp%3A%2F%2Fopen.demonii.com%3A1337","udp%3A%2F%2Ftracker.coppersurfer.tk%3A6969","udp%3A%2F%2Fexodus.desync.com%3A6969"],"infoHash":"08a5152a9a54973be563b0df407cbd1015806e16","infoHashBuffer":{"type":"Buffer","data":[8,165,21,42,154,84,151,59,229,99,176,223,64,124,189,16,21,128,110,22]},"announce":[],"urlList":[]}}